<svg class="icon-leadership" width="100px" height="100px" viewBox="0 0 1000 1000" version="1.1" xmlns="http://www.w3.org/2000/svg" xmlns:xlink="http://www.w3.org/1999/xlink">
  <circle class="icon-leadership__border" stroke="#4DDBFF" stroke-width="20" fill="none" cx="500" cy="500" r="490"></circle>
  <path class="icon-leadership__fill" d="M516.287234,591.255319 L511.297872,591.255319 L506.095745,591.180851 C482.62766,590.93617 471.840426,589.56383 440.297872,557.648936 L457.755319,540.393617 C483.446809,566.404255 488.297872,566.457447 506.340426,566.648936 L511.659574,566.723404 C531.202128,567.06383 538.510638,567.138298 563.117021,540.191489 L581.202128,556.744681 C552.734043,587.93617 538.255319,591.255319 516.287234,591.255319 L516.287234,591.255319 Z"
  stroke="none" fill="#4DDBFF" fill-rule="evenodd"></path>
  <path class="icon-leadership__smile" d="M508.978723,519.085106 C496.920127,519.082502 485.254694,514.795625 476.06383,506.989362 C474.106825,505.33815 472.892756,502.971857 472.692856,500.419131 C472.492956,497.866405 473.323882,495.339972 475,493.404255 C476.651474,491.444047 479.019955,490.227858 481.575303,490.027909 C484.130652,489.82796 486.659475,490.660948 488.595745,492.340426 C500.349559,502.337962 517.618526,502.337962 529.37234,492.340426 C531.322698,490.682197 533.853168,489.869011 536.404411,490.080617 C538.955654,490.292222 541.317573,491.511193 542.968085,493.468085 C544.620908,495.415927 545.431841,497.940796 545.222336,500.486777 C545.012831,503.032758 543.800067,505.3911 541.851064,507.042553 C532.663878,514.820154 521.015977,519.087282 508.978723,519.085106 L508.978723,519.085106 Z"
  stroke="none" fill="#4DDBFF" fill-rule="evenodd"></path>
  <path class="icon-leadership__stroke" d="M250.531915,720.159574 C250.531915,720.159574 271.808511,670.159574 323.93617,648.351064 C376.06383,626.542553 445.212766,566.968085 445.212766,566.968085 L446.276596,545.159574 C446.276596,545.159574 409.574468,499.946809 400,475.478723 C393.913999,459.660215 388.763268,443.497578 384.574468,427.074468 C384.574468,427.074468 398.404255,404.734043 399.468085,399.414894 C400.531915,394.095745 367.021277,255.797872 507.978723,252.074468 C648.93617,248.351064 619.680851,394.62766 619.148936,400.478723 C618.617021,406.329787 632.446809,424.414894 632.446809,424.414894 C624.468085,456.861702 624.478723,456.861702 611.170213,481.329787 C597.861702,505.797872 569.680851,548.882979 569.680851,548.882979 L567.553191,571.755319 C567.553191,571.755319 625,623.882979 657.978723,636.117021 C690.957447,648.351064 749.468085,710.053191 749.468085,710.053191"
  stroke="#4DDBFF" stroke-width="25" fill="none"></path>
  <path class="icon-leadership__hair" d="M586,377.670213 C516.851064,377.670213 480.882979,359.021277 466.202128,348.659574 C434.574468,367.117021 401.510638,370.053191 400.010638,370.180851 L397.957447,345.712766 C398.297872,345.712766 432,342.521277 460.223404,323.43617 L468.925532,317.542553 L476.085106,325.223404 C476.319149,325.457447 511.893617,360.234043 617.989362,351.819149 L619.925532,376.287234 C607.829787,377.234043 596.521277,377.670213 586,377.670213 L586,377.670213 Z"
  stroke="none" fill="#4DDBFF" fill-rule="evenodd"></path>
  <path class="icon-leadership__necktie" d="M473.5,606.425532 L451.159574,657.489362 L508.606383,748.43617 L567.648936,649.5 L538.12766,606.5 C538.12766,606.5 530.329787,613.595745 509.053191,615.010638 C487.776596,616.425532 473.5,606.425532 473.5,606.425532 L473.5,606.425532 Z"
  stroke="#4DDBFF" stroke-width="25" fill="none"></path>
  <g class="icon-leadership__hand" transform="translate(250 50)">
    <path class="icon-leadership__hand--border" d="M291.913166,634.647229 C296.675896,631.61804 302.574683,630.970481 307.881145,632.894291 C313.187608,634.818102 317.300911,639.095455 319.015834,644.473059 C323.645526,641.146863 329.566407,640.182475 335.012333,641.867564 C340.458259,643.552652 344.799792,647.692455 346.741893,653.052107 C352.262309,648.960728 359.616576,648.327788 365.754879,651.415769 C371.893181,654.503749 375.768641,660.785999 375.774105,667.657269 L375.774105,715.688065 C375.436754,729.941353 373.444374,744.10717 369.837047,757.900545 C366.707897,771.181828 361.784363,783.975027 355.2022,795.927399 L353.955418,797.975684 L259.31872,797.975684 L258.131308,795.719602 C254.925297,789.782544 250.650615,783.103355 246.257193,776.275738 C238.390591,764.223511 228.891299,749.558979 224.646303,735.636579 C224.646303,735.636579 197,655.366211 197,647.788512 C197,640.210812 215.833722,641.026043 221.677774,643.345018 C228.699817,646.729744 234.053607,652.811649 236.520418,660.206262 L252.164565,703.338985 C252.412417,704.300967 253.350153,704.91756 254.331591,704.763879 C255.180519,704.585182 255.749298,703.783721 255.637744,702.923391 L255.637744,584.182239 C255.637744,574.140466 263.778209,566 273.819983,566 C283.861756,566 292.002222,574.140466 292.002222,584.182239 L291.913166,634.647229 Z" stroke="none" stroke-width="25" fill="none" fill-rule="evenodd"></path>
    <path class="icon-leadership__hand--fill" d="M357.418052,657.787548 C352.024186,657.787548 347.651593,662.160141 347.651593,667.554008 L347.651593,683.79186 L339.220971,683.79186 L339.220971,659.123386 C339.220971,653.729519 334.848378,649.356926 329.454511,649.356926 C324.060644,649.356926 319.688051,653.729519 319.688051,659.123386 L319.688051,683.79186 L311.257429,683.79186 L311.257429,649.891261 C311.257429,644.497395 306.884836,640.124802 301.49097,640.124802 C296.097103,640.124802 291.72451,644.497395 291.72451,649.891261 L291.72451,683.79186 L283.293888,683.79186 L283.293888,584.257089 C283.007701,579.064148 278.713407,575 273.512586,575 C268.311764,575 264.01747,579.064148 263.731283,584.257089 L263.731283,702.998242 C263.861662,707.969341 260.320856,712.281536 255.419402,713.120925 C250.452404,713.901657 245.639096,711.013673 243.990567,706.263623 L228.465161,663.012159 C226.923234,657.809325 223.258626,653.498021 218.372163,651.138043 C214.472066,649.595432 203.873458,646.484538 206.378727,653.134043 C208.883995,659.783548 206.23088,651.138043 206.23088,651.138043 L232.561731,733.010068 C237.370747,747.466803 244.970181,758.984695 253.341432,771.600943 C257.348946,777.745797 261.267404,783.682855 264.473415,789.412115 L349.017116,789.412115 C354.523468,778.714567 358.719599,767.391991 361.514622,755.689628 C364.974478,742.581428 366.867764,729.1092 367.154827,715.555119 L367.154827,667.524322 C367.184512,662.160141 362.811919,657.787548 357.418052,657.787548 Z" stroke="none" fill="none" fill-rule="evenodd"></path>
  </g>
</svg>
