<svg class="icon-plans" width="100px" height="100px" viewBox="0 0 1000 1000" version="1.1" xmlns="http://www.w3.org/2000/svg" xmlns:xlink="http://www.w3.org/1999/xlink">
  <circle class="icon-plans__border" stroke="#4ddbff" stroke-width="20" fill="none" cx="500" cy="500" r="490"></circle>
  <g class="icon-plans__stack">
    <path class="icon-plans__fill" d="M376.143239,639.046591 C300.586388,637.248733 237.79103,614.109623 217.43125,583.112605 L210,583.112605 L210,608.868643 C210,652.037215 288.84375,686.862281 385.63125,686.862281 C405.662373,686.885269 425.663378,685.308298 445.44375,682.146387 C445.4398,682.143567 445.43585,682.140747 445.431901,682.137926 C512.994579,671.308498 561.44375,642.595794 561.44375,608.756038 L561.44375,583 L554.0125,583 C532.80625,615.285738 465.5625,639.046591 385.8125,639.046591 L376.143239,639.046591 Z" stroke="none" fill="#4ddbff" fill-rule="evenodd"></path>
    <path class="icon-plans__fill" d="M376.143239,556.046591 C300.586388,554.248733 237.79103,531.109623 217.43125,500.112605 L210,500.112605 L210,525.868643 C210,569.037215 288.84375,603.862281 385.63125,603.862281 C405.662373,603.885269 425.663378,602.308298 445.44375,599.146387 C445.4398,599.143567 445.43585,599.140747 445.431901,599.137926 C512.994579,588.308498 561.44375,559.595794 561.44375,525.756038 L561.44375,500 L554.0125,500 C532.80625,532.285738 465.5625,556.046591 385.8125,556.046591 L376.143239,556.046591 Z" stroke="none" fill="#4ddbff" fill-rule="evenodd"></path>
    <path class="icon-plans__fill" d="M376.143239,474.046591 C300.586388,472.248733 237.79103,449.109623 217.43125,418.112605 L210,418.112605 L210,443.868643 C210,487.037215 288.84375,521.862281 385.63125,521.862281 C405.662373,521.885269 425.663378,520.308298 445.44375,517.146387 C445.4398,517.143567 445.43585,517.140747 445.431901,517.137926 C512.994579,506.308498 561.44375,477.595794 561.44375,443.756038 L561.44375,418 L554.0125,418 C532.80625,450.285738 465.5625,474.046591 385.8125,474.046591 L376.143239,474.046591 Z" stroke="none" fill="#4ddbff" fill-rule="evenodd"></path>
    <path class="icon-plans__fill" d="M212.697283,375.455271 C210.924835,371.030284 210,366.476596 210,361.828331 L210,330.812257 C210,326.427439 210.820337,322.127545 212.396377,317.940872 C212.264257,317.93853 212.132131,317.936319 212,317.934238 C225.611544,281.295366 298.024961,253 385.138846,253 L389.138846,253 C486.053042,253 561,287.825066 561,330.812257 L561,361.828331 C561,395.396712 512.703947,424.032631 445.234591,434.884255 C445.30428,434.934142 445.373998,434.983984 445.44375,435.033782 C425.663378,438.195693 405.662373,439.772664 385.63125,439.749676 C299.326608,439.749676 227.289305,412.059755 212.697283,375.455271 Z M365.746441,391.549011 C302.773493,387.314535 254.95,365.689193 254.95,339.699904 C254.95,311.069759 313.162686,287.735489 385.385209,287.112323 C457.702271,287.735488 515.99116,311.069759 515.99116,339.699904 C515.99116,366.969304 463.271596,389.434276 395.625742,392.046591 L385.63125,392.046591 C378.907381,392.046591 372.272413,391.877687 365.746441,391.549011 Z" stroke="none" fill="#4DDBFF" fill-rule="evenodd"></path>
  </g>

  <g class="icon-plans__coin-shadow">
    <path d="M337.000291,518.804024 C337.197777,394.520639 437.984526,293.901435 562.178574,294.000072 C686.372621,294.09871 786.999646,394.87788 787,519.161422 C786.952578,578.9567 763.158333,636.281432 720.856777,678.512666 C678.555221,720.743901 621.215193,744.418567 561.46301,744.323484 C437.269278,744.026864 336.802804,643.087409 337.000291,518.804024 Z" stroke="none" fill="#FFFFFF" fill-rule="evenodd"></path>
    <path d="M334.000294,518.632811 C334.200266,392.785525 436.25525,290.900195 562.012074,291.000073 C687.768898,291.099952 789.662148,393.147262 789.662506,518.994706 C789.614487,579.542409 765.520831,637.588478 722.68698,680.351123 C679.853129,723.113768 621.791571,747.08634 561.287506,746.990061 C435.531001,746.689709 333.800323,644.480097 334.000294,518.632811 Z M388.375384,519.356331 C388.575283,615.151428 466.285635,692.674734 562.011938,692.574948 C657.738242,692.475162 735.287036,614.790013 735.287506,518.994706 C735.239503,472.878524 716.874627,428.672897 684.23806,396.114885 C651.601493,363.556873 607.37042,345.317217 561.287506,345.413518 C465.561621,345.713817 388.175486,423.561233 388.375384,519.356331 Z" stroke="none" fill="#4DDBFF" fill-rule="evenodd"></path>
    <path d="M581.38125,492.966471 C554.7375,482.99054 545.13125,477.186363 545.13125,469.74976 C545.13125,458.322785 559.45,456.50898 567.96875,456.50898 C582.526066,456.538156 596.892861,459.822589 610.01875,466.122149 L617.63125,469.386999 L629.4125,423.6791 L625.7875,421.865294 C611.943316,415.433879 596.988227,411.738605 581.74375,410.982461 L581.74375,382.505714 L541.325,382.505714 L541.325,414.06593 C510.678024,418.483462 487.695311,444.39597 486.95,475.372557 C486.95,513.462473 519.75625,529.786723 548.2125,538.85575 C573.76875,547.562017 579.025,554.454478 579.025,562.253842 C579.025,576.401525 559.0875,577.489808 552.925,577.489808 C535.028447,577.233535 517.471755,572.560839 501.8125,563.886267 L496.375,561.346939 L484.23125,608.687263 L487.3125,610.501068 C503.587713,618.842279 521.434857,623.662625 539.69375,624.648752 L539.69375,655.483445 L580.8375,655.483445 L580.8375,621.383902 C612.962764,617.119263 637.236544,590.137511 638.1125,557.719328 C638.29375,526.340492 621.25625,506.932773 581.38125,492.966471 L581.38125,492.966471 Z" stroke="none" fill="#4ddbff" fill-rule="evenodd"></path>
  </g>

  <g class="icon-plans__coin-top">
    <path d="M337.000291,518.804024 C337.197777,394.520639 437.984526,293.901435 562.178574,294.000072 C686.372621,294.09871 786.999646,394.87788 787,519.161422 C786.952578,578.9567 763.158333,636.281432 720.856777,678.512666 C678.555221,720.743901 621.215193,744.418567 561.46301,744.323484 C437.269278,744.026864 336.802804,643.087409 337.000291,518.804024 Z" stroke="none" fill="#FFFFFF" fill-rule="evenodd"></path>
    <path class="icon-plans__fill" d="M334.000294,518.632811 C334.200266,392.785525 436.25525,290.900195 562.012074,291.000073 C687.768898,291.099952 789.662148,393.147262 789.662506,518.994706 C789.614487,579.542409 765.520831,637.588478 722.68698,680.351123 C679.853129,723.113768 621.791571,747.08634 561.287506,746.990061 C435.531001,746.689709 333.800323,644.480097 334.000294,518.632811 Z M388.375384,519.356331 C388.575283,615.151428 466.285635,692.674734 562.011938,692.574948 C657.738242,692.475162 735.287036,614.790013 735.287506,518.994706 C735.239503,472.878524 716.874627,428.672897 684.23806,396.114885 C651.601493,363.556873 607.37042,345.317217 561.287506,345.413518 C465.561621,345.713817 388.175486,423.561233 388.375384,519.356331 Z" stroke="none" fill="#4DDBFF" fill-rule="evenodd"></path>
    <path class="icon-plans__fill" d="M581.38125,492.966471 C554.7375,482.99054 545.13125,477.186363 545.13125,469.74976 C545.13125,458.322785 559.45,456.50898 567.96875,456.50898 C582.526066,456.538156 596.892861,459.822589 610.01875,466.122149 L617.63125,469.386999 L629.4125,423.6791 L625.7875,421.865294 C611.943316,415.433879 596.988227,411.738605 581.74375,410.982461 L581.74375,382.505714 L541.325,382.505714 L541.325,414.06593 C510.678024,418.483462 487.695311,444.39597 486.95,475.372557 C486.95,513.462473 519.75625,529.786723 548.2125,538.85575 C573.76875,547.562017 579.025,554.454478 579.025,562.253842 C579.025,576.401525 559.0875,577.489808 552.925,577.489808 C535.028447,577.233535 517.471755,572.560839 501.8125,563.886267 L496.375,561.346939 L484.23125,608.687263 L487.3125,610.501068 C503.587713,618.842279 521.434857,623.662625 539.69375,624.648752 L539.69375,655.483445 L580.8375,655.483445 L580.8375,621.383902 C612.962764,617.119263 637.236544,590.137511 638.1125,557.719328 C638.29375,526.340492 621.25625,506.932773 581.38125,492.966471 L581.38125,492.966471 Z" stroke="none" fill="#4ddbff" fill-rule="evenodd"></path>
  </g>
</svg>
