<svg class="icon-thumb" width="100px" height="100px" viewBox="0 0 1000 1000" version="1.1" xmlns="http://www.w3.org/2000/svg" xmlns:xlink="http://www.w3.org/1999/xlink">
  <circle class="icon-thumb__border" stroke="#4ddbff" stroke-width="20" fill="#fff" cx="500" cy="500" r="490"></circle>
  <g class="icon-thumb__hand">
    <path class="icon-thumb__thumb-up" d="M656.451613,706.134409 L346.774194,706.134409 C334.154784,706.134409 323.924731,695.904356 323.924731,683.284946 C323.924731,670.665537 334.154784,660.435484 346.774194,660.435484 L652.715054,660.435484 C664.865591,655.865591 665.349462,649.682796 665.349462,649.682796 C665.224414,648.791809 665.152602,647.894159 665.134409,646.994624 C664.29554,645.004201 663.102367,643.182563 661.612903,641.61828 C654.726477,635.226525 652.45467,625.27084 655.886705,616.524496 C659.318739,607.778152 667.754933,602.024249 677.150538,602.021505 C681.638654,601.996053 685.31132,598.44186 685.483871,593.956989 C685.426823,591.733629 684.454093,589.632534 682.795699,588.150538 C676.066606,582.041422 672.94095,572.908011 674.516129,563.956989 C677.392473,548.392473 691.989247,542.451613 698.225806,539.763441 L698.763441,539.548387 C702.332812,538.010165 704.33843,534.183547 703.572438,530.373062 C702.806446,526.562577 699.477911,523.808242 695.591398,523.768817 L687.284946,523.768817 C684.47207,523.768736 681.683387,523.249276 679.05914,522.236559 C669.799409,518.980428 663.236563,510.690792 662.191693,500.931015 C661.146823,491.171237 665.806088,481.680175 674.166667,476.537634 C677.931744,473.706378 680.166847,469.285842 680.215054,464.575269 C680.126052,463.897173 680.126052,463.210354 680.215054,462.532258 C680.134787,459.604429 678.283556,457.019089 675.537634,456 C669.751254,453.522226 663.625611,451.927384 657.365591,451.268817 L562.822581,451.268817 C554.72842,451.273811 547.235647,446.996232 543.124985,440.023576 C539.014322,433.050921 538.899291,424.423865 542.822581,417.344086 C582.553763,345.543011 574.919355,321.752688 573.010753,317.72043 C571.652574,314.821987 568.814,312.902078 565.61828,312.72043 L565.16129,312.72043 C551.424731,310.247312 543.064516,320.38172 528.360215,345.623656 L526.075269,349.548387 C508.394895,377.546085 489.124969,404.507826 468.360215,430.301075 C422.5,487.989247 403.225806,497.182796 389.05914,498.741935 C357.419355,502.021505 344.435484,499.897849 340.295699,498.741935 L351.72043,454.494624 C351.395355,454.389398 351.062894,454.30853 350.725806,454.252688 C350.725806,454.252688 359.462366,455.677419 382.983871,453.311828 C402.580645,444.575269 465.967742,361.026882 486.55914,325.83871 L488.763441,322.075269 C502.688172,298.258065 525.860215,258.580645 573.333333,267.209677 C591.164872,269.885401 606.499643,281.250462 614.247312,297.532258 C626.155914,322.451613 621.532258,357.827957 600.026882,405.05914 L658.602151,405.05914 L660.322581,405.05914 C672.572294,406.123573 684.552474,409.259508 695.752688,414.333333 C715.736855,423.57631 727.809687,444.327833 725.967742,466.268817 C725.696106,472.546252 724.472471,478.746003 722.33871,484.655914 C738.173221,493.683273 748.375789,510.098716 749.460423,528.293455 C750.545057,546.488194 742.364947,563.999475 727.715054,574.844086 C736.147618,597.176092 728.779919,622.392919 709.650538,636.672043 C710.287456,639.434767 710.656547,642.252461 710.752688,645.086022 C712.177419,661.215054 704.086022,692.586022 663.091398,705.166667 C660.937733,705.813848 658.70041,706.139935 656.451613,706.134409 L656.451613,706.134409 Z"
    stroke="none" fill="#4ddbff" fill-rule="evenodd"></path>
    <path class="icon-thumb__fill" d="M329.811828,733.016129 L285.77957,733.016129 C266.025203,733.001304 250.014825,716.990926 250,697.236559 L250,459.548387 C250.07399,439.836025 266.067074,423.891004 285.77957,423.876344 L329.811828,423.876344 C349.524323,423.891004 365.517407,439.836025 365.591398,459.548387 L365.591398,697.129032 C365.61281,706.634802 361.8535,715.758967 355.141981,722.490656 C348.430462,729.222345 339.31762,733.009017 329.811828,733.016129 L329.811828,733.016129 Z M295.698925,687.317204 L319.892473,687.317204 L319.892473,469.575269 L295.698925,469.575269 L295.698925,687.317204 Z"
    stroke="none" fill="#4ddbff" fill-rule="evenodd"></path>
    <path class="icon-thumb__thumb-down" d="M346.774194,706.134409 C334.154784,706.134409 323.924731,695.904356 323.924731,683.284946 C323.924731,670.665537 334.154784,660.435484 346.774194,660.435484 L652.715054,660.435484 C664.865591,655.865591 665.349462,649.682796 665.349462,649.682796 C665.224414,648.791809 665.152602,647.894159 665.134409,646.994624 C664.29554,645.004201 663.102367,643.182563 661.612903,641.61828 C654.726477,635.226525 652.45467,625.27084 655.886705,616.524496 C659.318739,607.778152 667.754933,602.024249 677.150538,602.021505 C681.638654,601.996053 685.31132,598.44186 685.483871,593.956989 C685.426823,591.733629 684.454093,589.632534 682.795699,588.150538 C676.066606,582.041422 672.94095,572.908011 674.516129,563.956989 C677.392473,548.392473 691.989247,542.451613 698.225806,539.763441 C702.332812,538.010165 704.33843,534.183547 703.572438,530.373062 C702.806446,526.562577 699.477911,523.808242 695.591398,523.768817 L687.284946,523.768817 C684.47207,523.768736 681.683387,523.249276 679.05914,522.236559 C669.799409,518.980428 663.236563,510.690792 662.191693,500.931015 C661.146823,491.171237 665.806088,481.680175 674.166667,476.537634 C677.931744,473.706378 680.166847,469.285842 680.215054,464.575269 C680.126052,463.897173 680.126052,463.210354 680.215054,462.532258 C680.134787,459.604429 678.283556,457.019089 675.537634,456 C669.751254,453.522226 663.625611,451.927384 657.365591,451.268817 L599.34375,423.027344 C553.927734,425.070355 531.749656,446.669112 498.523438,462.532258 C452.015328,484.736559 403.225806,497.182796 389.05914,498.741935 C357.419355,502.021505 344.435484,499.897849 340.295699,498.741935 L351.72043,454.494624 C350.725806,454.252688 359.462366,455.677419 382.983871,453.311828 C406.353516,451.268817 436.71875,436.121094 481.039062,414.333333 C481.039062,414.333333 581.69015,328.422645 633.425781,383.96875 C641.568566,392.711274 684.552474,409.259508 695.752688,414.333333 C715.736855,423.57631 727.809687,444.327833 725.967742,466.268817 C725.696106,472.546252 724.472471,478.746003 722.33871,484.655914 C738.173221,493.683273 748.375789,510.098716 749.460423,528.293455 C750.545057,546.488194 742.364947,563.999475 727.715054,574.844086 C736.147618,597.176092 728.779919,622.392919 709.650538,636.672043 C710.287456,639.434767 710.656547,642.252461 710.752688,645.086022 C712.177419,661.215054 704.086022,692.586022 663.091398,705.166667 C660.937733,705.813848 658.70041,706.139935 656.451613,706.134409 L346.774194,706.134409 Z" fill="transparent" stroke="none"></path>
  </g>
</svg>
