<svg class="icon-contact" width="100px" height="100px" viewbox="0 0 455 455" version="1.1" xmlns="http://www.w3.org/2000/svg" xmlns:xlink="http://www.w3.org/1999/xlink">
  <circle class="icon-contact__border" fill="#fff" stroke="#4DDBFF" stroke-width="10" cx="227.5" cy="227.5" r="223"></circle>
  <rect class="icon-contact__envelop" rx="10" height="180" width="230" y="138" x="113" stroke-width="22" stroke="#4DDBFF" fill="#fff"/>
  <g class="icon-contact__cover">
    <line class="icon-contact__cover-left" stroke-linecap="square" y2="147" x2="215" y1="147" x1="128" stroke-width="26" stroke="#4DDBFF" transform="translate(1 -75) skewY(35)"/>
    <line class="icon-contact__cover-right" stroke-linecap="square" y2="147" x1="241" y1="147" x2="328" stroke-width="26" stroke="#4DDBFF" transform="translate(-1 245) skewY(-35)"/>
  </g>
  <g class="icon-contact__letter" style="visibility: hidden">
    <rect rx="0" height="100" width="140" y="30" x="158" stroke-width="10" stroke="#4ddbff" fill="#4ddbff" />
    <line stroke-linecap="round" stroke-linejoin="null" y2="50" x2="288" y1="50" x1="170" fill-opacity="null" stroke-opacity="null" stroke-width="5" stroke="#fff" fill="none" />
    <line stroke-linecap="round" stroke-linejoin="null" y2="80" x2="288" y1="80" x1="170" fill-opacity="null" stroke-opacity="null" stroke-width="5" stroke="#fff" fill="none" />
    <line stroke-linecap="round" stroke-linejoin="null" y2="110" x2="288" y1="110" x1="170" fill-opacity="null" stroke-opacity="null" stroke-width="5" stroke="#fff" fill="none" />
  </g>
  <g>
    <polygon fill="#fff" points="130 176 305 297 130 297"></polygon>
    <polygon fill="#fff" points="325 176 153 297 325 297"></polygon>
    <line class="icon-contact__sign" stroke-linecap="round" y2="260" x2="280" y1="285" x1="250" stroke-width="15" stroke="#4DDBFF" />
    <line class="icon-contact__sign icon-contact__sign--delay" stroke-linecap="round" y2="260" x2="315" y1="285" x1="285" stroke-width="15" stroke="#4DDBFF" />
  </g>
</svg>
